<?xml version="1.0" encoding="UTF-8"?>
<!DOCTYPE svg PUBLIC "-//W3C//DTD SVG 1.1//EN" "http://www.w3.org/Graphics/SVG/1.1/DTD/svg11.dtd">
<!-- Creator: CorelDRAW 2019 (64-Bit) -->
<svg xmlns="http://www.w3.org/2000/svg" xml:space="preserve" width="63.8755mm" height="38.1637mm" version="1.1" style="shape-rendering:geometricPrecision; text-rendering:geometricPrecision; image-rendering:optimizeQuality; fill-rule:evenodd; clip-rule:evenodd"
viewBox="0 0 6617.08 3953.51"
 xmlns:xlink="http://www.w3.org/1999/xlink"
 xmlns:xodm="http://www.corel.com/coreldraw/odm/2003">
 <defs>
  <style type="text/css">
   <![CDATA[
    .str0 {stroke:#AE2220;stroke-width:18.27;stroke-miterlimit:22.9256}
    .fil1 {fill:#FEFEFE}
    .fil0 {fill:#AE2220}
    .fil2 {fill:#18A49D}
    .fil4 {fill:#AE2220;fill-rule:nonzero}
    .fil3 {fill:#18A49D;fill-rule:nonzero}
   ]]>
  </style>
 </defs>
 <g id="Слой_x0020_1">
  <metadata id="CorelCorpID_0Corel-Layer"/>
  <path class="fil0" d="M2243.95 2896.88c-164.7,-282.36 -347.28,-559.87 -513.17,-844.79 -212.71,-365.33 -381.63,-647.1 -422.24,-913.64 -266.99,-1752.69 2699.12,-1410.9 1674.81,539.91 -253.69,483.16 -563.3,926.8 -739.4,1218.53z"/>
  <polygon class="fil1" points="2233.52,1748.57 2599.63,423.61 3000.59,423.61 2615.32,1800.88 1862.17,1800.88 1481.24,425.35 1874.38,425.35 "/>
  <path class="fil2" d="M952.49 1056.64c-164.7,282.35 -347.27,559.86 -513.17,844.78 -212.71,365.33 -381.63,647.1 -422.23,913.64 -267,1752.69 2699.11,1410.9 1674.79,-539.9 -253.69,-483.17 -563.29,-926.8 -739.4,-1218.53z"/>
  <path class="fil3" d="M3340.74 2602.03l-141.42 0 -164.55 -517.84 -164.38 517.84 -142.52 0 231.84 -684.13 149.18 0 231.84 684.13zm424.73 0l-367.73 0 0 -684.13 367.73 0 0 122.57 -231.85 0 0 153.93 228.99 0 0 122.57 -228.99 0 0 160.58 231.85 0 0 124.48zm556.8 0l-135.87 0 0 -263.2c-51.48,12.04 -90.58,18.06 -117.2,18.06 -66.67,0 -118.77,-19.95 -156.3,-59.87 -37.53,-39.9 -56.22,-93.43 -56.22,-160.58l0 -218.54 131.13 0 0 217.6c0,65.88 32.47,98.82 97.39,98.82 34.37,0 68.1,-6.02 101.2,-18.06l0 -298.36 135.87 0 0 684.13zm488.39 0l-367.73 0 0 -684.13 367.73 0 0 122.57 -231.85 0 0 153.93 228.99 0 0 122.57 -228.99 0 0 160.58 231.85 0 0 124.48zm639.47 0l-135.87 0 0 -286 -252.76 0 0 286 -135.87 0 0 -684.13 135.87 0 0 273.65 252.76 0 0 -273.65 135.87 0 0 684.13zm676.53 0l-135.87 0 0 -453.23 -302.16 453.23 -116.87 0 0 -684.13 135.87 0 0 451.81 302.32 -451.81 116.72 0 0 684.13zm489.34 0l-367.73 0 0 -684.13 367.73 0 0 122.57 -231.85 0 0 153.93 228.99 0 0 122.57 -228.99 0 0 160.58 231.85 0 0 124.48z"/>
  <path class="fil4 str0" d="M2440.12 3258.14c0,98.01 -59.03,147.02 -177.1,147.02l-111.46 0 0 -492.34 98.47 0c108.04,0 162.06,43.76 162.06,131.28 0,46.5 -20.51,78.64 -61.54,96.42 59.72,18.23 89.58,57.43 89.58,117.61zm-86.84 -215.4c0,-51.05 -33.5,-76.59 -100.52,-76.59l-44.45 0 0 158.64 41.72 0c68.84,0 103.25,-27.35 103.25,-82.06zm27.36 222.92c0,-34.64 -9.81,-59.27 -29.41,-73.85 -16.87,-12.31 -43.3,-18.46 -79.32,-18.46l-63.6 0 0 178.47 58.81 0c75.67,0 113.52,-28.72 113.52,-86.16zm601.74 -7.52c0,98.01 -59.03,147.02 -177.1,147.02l-111.46 0 0 -492.34 98.47 0c108.04,0 162.06,43.76 162.06,131.28 0,46.5 -20.51,78.64 -61.54,96.42 59.72,18.23 89.58,57.43 89.58,117.61zm-86.84 -215.4c0,-51.05 -33.5,-76.59 -100.52,-76.59l-44.45 0 0 158.64 41.72 0c68.84,0 103.25,-27.35 103.25,-82.06zm27.36 222.92c0,-34.64 -9.81,-59.27 -29.41,-73.85 -16.87,-12.31 -43.3,-18.46 -79.32,-18.46l-63.6 0 0 178.47 58.81 0c75.67,0 113.52,-28.72 113.52,-86.16zm609.96 -110.09c0,72.03 -24.39,133.34 -73.17,183.94 -48.78,50.61 -108.95,75.9 -180.52,75.9 -71.12,0 -130.95,-25.41 -179.51,-76.24 -48.54,-50.83 -72.83,-111.8 -72.83,-182.91 0,-68.84 24.97,-128.22 74.88,-178.14 49.92,-49.91 109.3,-74.88 178.14,-74.88 69.75,0 129.35,24.62 178.81,73.85 49.47,49.24 74.19,108.73 74.19,178.48zm-60.86 -0.68c0,-52.88 -18.92,-98.7 -56.76,-137.45 -37.83,-38.75 -83.2,-58.13 -136.07,-58.13 -51.97,0 -96.88,19.83 -134.71,59.49 -37.84,39.66 -56.76,85.47 -56.76,137.45 0,55.15 18.23,102.34 54.71,141.55 37.38,40.57 83.42,60.85 138.13,60.85 55.61,0 101.66,-20.28 138.12,-60.85 35.56,-39.21 53.34,-86.85 53.34,-142.92zm490.29 250.27l-61.19 0 -146.56 -410.28 -2.73 1.14 -144.74 409.14 -61.89 0 181.21 -492.34 54.02 0 181.89 492.34zm279.68 -439.01l-186.69 0 0 439.01 -58.12 0 0 -492.34 244.8 0 0 53.33zm537.47 189.42c0,72.03 -24.39,133.34 -73.17,183.94 -48.78,50.61 -108.95,75.9 -180.52,75.9 -71.12,0 -130.95,-25.41 -179.51,-76.24 -48.54,-50.83 -72.83,-111.8 -72.83,-182.91 0,-68.84 24.97,-128.22 74.88,-178.14 49.92,-49.91 109.3,-74.88 178.14,-74.88 69.75,0 129.35,24.62 178.81,73.85 49.47,49.24 74.19,108.73 74.19,178.48zm-60.86 -0.68c0,-52.88 -18.92,-98.7 -56.76,-137.45 -37.83,-38.75 -83.2,-58.13 -136.07,-58.13 -51.97,0 -96.88,19.83 -134.71,59.49 -37.84,39.66 -56.76,85.47 -56.76,137.45 0,55.15 18.23,102.34 54.71,141.55 37.38,40.57 83.42,60.85 138.13,60.85 55.61,0 101.66,-20.28 138.12,-60.85 35.56,-39.21 53.34,-86.85 53.34,-142.92zm370.63 -188.74l-186.69 0 0 439.01 -58.12 0 0 -492.34 244.8 0 0 53.33zm350.1 88.89c0,48.33 -16.41,85.26 -49.23,110.78 -29.64,23.25 -69.29,34.87 -118.99,34.87l-67.7 0 0 204.46 -58.12 0 0 -492.34 126.5 0c50.15,0 89.81,10.94 118.99,32.82 32.36,24.16 48.54,60.63 48.54,109.41zm-60.17 3.42l0 0c0,-61.53 -36.82,-92.31 -110.33,-92.31l-65.42 0 0 181.22 62.91 0c75.22,0 112.83,-29.64 112.83,-88.9zm502.6 346.7l-61.66 0 -57.78 -151.81 -198.76 0 -57.09 151.81 -62.34 0 192.15 -492.34 53.34 0 192.16 492.34zm-140.3 -205.15l-77.04 -205.14 -2.05 1.37 -78.75 203.77 157.85 0zm564.94 296.77l-55.39 0 0 -91.63 -323.44 0 0 91.63 -56.76 0 0 -144.97 33.5 0 157.29 -439 54.01 0 157.28 439 33.51 0 0 144.97zm-92.31 -144.97l-124.69 -360.25 -1.94 1.25 -125.71 358.99 252.33 0zm393.87 53.34l-255.06 0 0 -492.34 255.06 0 0 53.33 -196.94 0 0 162.06 184.63 0 0 53.34 -184.63 0 0 170.27 196.94 0 0 53.34z"/>
  <polygon class="fil1" points="945.89,2200.89 1312,3525.85 1712.97,3525.85 1327.69,2148.59 574.55,2148.59 193.62,3524.11 586.75,3524.11 "/>
 </g>
</svg>
